<svg width="9" height="10" xmlns="http://www.w3.org/2000/svg"><g id="Symbols" stroke="none" stroke-width="1" fill="none" fill-rule="evenodd"><g id="Clubs" fill="#FFF"><path d="M2.589 2.43c0 .565.15 1.086.404 1.5A2.25 2.25 0 000 6.053a2.25 2.25 0 002.25 2.25c.958 0 1.776-.6 2.101-1.443l.001-.076v.074l-.001.002c-.015.88-.283 1.84-.806 2.885h1.95c-.549-1.059-.832-2.022-.847-2.887A2.25 2.25 0 009 6.053a2.25 2.25 0 00-2.25-2.25 2.2 2.2 0 00-.794.146c.26-.416.416-.944.416-1.52C6.372 1.09 5.525 0 4.48 0 3.436 0 2.589 1.09 2.589 2.43z" id="Shape"/></g></g></svg>